# ProBuilder 5.0.3
# https://unity3d.com/unity/features/worldbuilding/probuilder
# 11/20/2021 2:26:56 AM

mtllib ./Block_Target.mtl
o Block Target

g Block Target Variant
v -0.07885966 0.1275977 0
v -0.1213525 0.1140176 0.07098552
v -0.04635255 0.1213526 0.075
v -0.1309164 -0.0008389921 0.1207675
v -0.075 0.04635258 0.1213525
v 0 0.07885969 0.1275976
v 0 0.15 0
v 0.04635255 0.1213526 0.075
v 0.07885966 0.1275977 0
v -0.04635255 0.1213526 -0.075
v 0.04635255 0.1213526 -0.075
v 0 0.07885969 -0.1275976
v -0.1213525 0.1140176 -0.07098497
v -0.075 0.04635258 -0.1213525
v -0.1309164 -0.0008390209 -0.1207671
v -0.2176002 0.1032722 -0.06009158
v -0.225669 2.980232E-08 -0.1067197
v -0.2559859 3.036212E-08 0
v -0.2176002 0.1032722 0.06009158
v -0.225669 2.980232E-08 0.1067197
v 0.1213525 0.114149 0.07082215
v 0.075 0.04635258 0.1213525
v 0.1308944 -0.0004437098 0.1204902
v 0 2.980232E-08 0.15
v -0.075 -0.04635252 0.1213525
v 0 -0.07885963 0.1275976
v -0.2176002 -0.1032721 0.06009158
v -0.2176002 -0.1032721 -0.06009158
v -0.1213525 -0.1156955 0.07098534
v -0.1213525 -0.1156955 -0.07098515
v -0.07885966 -0.1275976 0
v -0.075 -0.04635252 -0.1213525
v 0 2.980232E-08 -0.15
v 0 -0.07885963 -0.1275976
v 0.075 0.04635258 -0.1213525
v 0.1213525 0.114149 -0.07082202
v 0.1308944 -0.0004437385 -0.1204896
v 0.07885966 -0.1275976 0
v 0.1213525 -0.1150364 0.07082208
v 0.04635255 -0.1213525 0.075
v 0.075 -0.04635252 0.1213525
v 0 -0.15 0
v -0.04635255 -0.1213525 0.075
v 0.04635255 -0.1213525 -0.075
v -0.04635255 -0.1213525 -0.075
v 0.1213525 -0.1150364 -0.07082209
v 0.075 -0.04635252 -0.1213525
v 0.2176002 -0.1032721 -0.06009158
v 0.225669 2.980232E-08 -0.1067197
v 0.2559859 3.036212E-08 0
v 0.2176002 -0.1032721 0.06009158
v 0.225669 2.980232E-08 0.1067197
v 0.2176002 0.1032722 0.06009158
v 0.2176002 0.1032722 -0.06009158

vt -0.07885966 0
vt -0.1213525 0.04635255
vt -0.04635255 0.075
vt -0.04635255 0.225
vt -0.07885966 0.15
vt -0.1213525 0.1963526
vt 0.1213525 0.225
vt 0.075 0.1963526
vt 0.04635255 0.2713526
vt 0 0.2288597
vt 0 0
vt 0 0.1275976
vt 0.04635255 0.075
vt 0.07885966 0
vt -0.04635255 -0.075
vt 0.04635255 -0.075
vt 0 -0.1275976
vt -0.1213525 -0.04635255
vt -0.04635255 0.2713526
vt -0.075 0.1963526
vt -0.1213525 0.225
vt 0.04635255 0.225
vt 0.1213525 0.1963526
vt 0.07885966 0.15
vt 0 0.2775976
vt 0 0.15
vt 0.1213525 0.04635255
vt 0.1275976 0.15
vt 0.075 0.1036475
vt 0 0.07114034
vt 0 0.02240238
vt -0.1275976 0.15
vt -0.075 0.1036475
vt 0.1213525 -0.04635255
vt 0.1213525 0.1036475
vt -0.1213525 0.075
vt -0.04635255 0.02864746
vt 0.04635255 0.02864746
vt 0.1213525 0.075
vt -0.1213525 0.1036475
vt -0.1083445 0.06815331
vt -0.1097707 -0.05738442
vt -0.2050906 0.05640866
vt -0.205549 -0.05717667
vt -0.1112539 0.05535859
vt -0.1092897 -0.07017176
vt -0.2070415 0.05627561
vt -0.2060807 -0.05730646
vt 0.1055432 -0.07098515
vt 0.1055432 0.07098534
vt 0.2025894 -0.06009158
vt 0.2025894 0.06009158
vt 0.1076542 -0.0693451
vt 0.1086919 0.05619647
vt 0.2043612 -0.05576593
vt 0.2044567 0.05782037
vt 0.1123243 -0.05653061
vt 0.1099691 0.0689931
vt 0.208112 -0.05561366
vt 0.2067859 0.05796466
vt -0.1079526 0.07098553
vt -0.1079526 -0.07098495
vt -0.2047982 0.0600916
vt -0.2047982 -0.06009157
vt 0.112492 -0.05600495
vt 0.1100873 0.06922933
vt 0.2068841 0.05805772
vt 0.1077667 -0.070822
vt 0.1077667 0.07082216
vt 0.204627 -0.06009157
vt 0.204627 0.0600916
vt 0.1081028 -0.0690162
vt 0.1093747 0.05623462
vt 0.2048076 -0.05615771
vt 0.2051245 0.05742813
vt -0.1064991 0.0708221
vt -0.1064991 -0.07082207
vt -0.203463 0.0600916
vt -0.203463 -0.06009157
vt -0.1119268 0.05538775
vt -0.1097291 -0.06985057
vt -0.2076965 0.05587271
vt -0.2065127 -0.05770722
vt -0.1099423 -0.05686279

vn -0.1032752 0.9865235 0.1269079
vn -0.3442566 0.3973579 0.8506433
vn -0.09818728 0.5500601 0.8293329
vn -0.3150939 0.5831288 0.7487835
vn -0.2680348 0.9435222 0.1947388
vn 0 0.7778675 0.6284284
vn 0 0.9341723 0.3568221
vn 0.2680348 0.9435222 0.1947388
vn -0.2680348 0.9435222 -0.1947388
vn 0.2680348 0.9435222 -0.1947388
vn 0 0.9341723 -0.3568221
vn 0 0.7778675 -0.6284284
vn -0.1032763 0.9865233 -0.1269084
vn -0.3150939 0.5831288 -0.7487835
vn -0.09819353 0.5500615 -0.8293313
vn -0.3442639 0.3973578 -0.8506405
vn -0.3044176 0.9525387 -9.997805E-08
vn -0.9435222 0.1947388 -0.2680349
vn -0.937344 0.3484055 0
vn -0.9435222 0.1947388 0.2680349
vn 0.1018106 0.9867547 0.1262924
vn 0.3150939 0.5831288 0.7487835
vn 0.0990351 0.5502456 0.8291091
vn 0.3457027 0.3972492 0.8501075
vn -0.1947388 0.2680349 0.9435222
vn -0.0104617 0 0.9999453
vn -0.3568222 0 0.9341723
vn -0.1947389 -0.2680348 0.9435222
vn -0.9435222 -0.1947388 0.2680349
vn -0.9435222 -0.1947388 -0.2680349
vn -0.937344 -0.3484055 0
vn -0.2697152 -0.9629402 0
vn -0.01047009 0 -0.9999452
vn -0.1947388 0.2680349 -0.9435222
vn -0.3568222 0 -0.9341723
vn -0.1947389 -0.2680348 -0.9435222
vn 0.3150939 0.5831288 -0.7487835
vn 0.101811 0.9867547 -0.1262925
vn 0.0990367 0.5502459 -0.8291087
vn 0.34571 0.3972452 -0.8501064
vn 0.0900064 -0.9885239 0.1213235
vn 0.3397972 -0.3976979 0.8522759
vn 0.09249856 -0.5488047 0.8308173
vn 0.315094 -0.5831288 0.7487834
vn 0.2680348 -0.9435222 0.1947389
vn 0 -0.7778676 0.6284282
vn 0 -0.9341723 0.3568222
vn -0.2680348 -0.9435222 0.1947389
vn 0.2680348 -0.9435222 -0.1947389
vn -0.2680348 -0.9435222 -0.1947389
vn 0 -0.9341723 -0.3568222
vn 0 -0.7778676 -0.6284282
vn 0.09000667 -0.9885238 -0.1213236
vn 0.315094 -0.5831288 -0.7487834
vn 0.09249856 -0.5488046 -0.8308173
vn 0.3398036 -0.3976932 -0.8522756
vn 0.2834804 -0.9589781 -1.513287E-07
vn 0.9435222 -0.1947388 -0.2680349
vn 0.937344 -0.3484055 0
vn 0.9435222 -0.1947388 0.2680349
vn 0.1947389 -0.2680348 0.9435222
vn 0.01542548 0 0.999881
vn 0.3568222 0 0.9341723
vn 0.1947388 0.2680349 0.9435222
vn -0.08094423 -0.9897686 0.1174994
vn -0.315094 -0.5831288 0.7487834
vn -0.08584528 -0.5473121 0.8325143
vn -0.3330497 -0.3981875 0.8547073
vn -0.315094 -0.5831288 -0.7487834
vn -0.08094452 -0.9897686 -0.1174995
vn -0.08584744 -0.5473126 -0.8325137
vn -0.3330551 -0.3981855 -0.8547062
vn 0.01543774 0 -0.9998809
vn 0.1947389 -0.2680348 -0.9435222
vn 0.3568222 0 -0.9341723
vn 0.1947388 0.2680349 -0.9435222
vn 0.9435222 0.1947388 0.2680349
vn 0.9435222 0.1947388 -0.2680349
vn 0.937344 0.3484055 0
vn 0.3017405 0.9533901 -1.00298E-07
vn -0.1472646 0.4036427 -0.9029871
vn -0.1384925 0.4100368 -0.9014263
vn -0.1297203 0.4164309 -0.8998655
vn -0.137676 -0.4035216 -0.9045528
vn -0.1464154 -0.4100446 -0.9001598
vn -0.1551548 -0.4165676 -0.895767
vn -0.1280157 -0.9917722 0
vn -0.1541798 -0.4037063 0.9018037
vn -0.1455585 -0.410102 0.9002842
vn -0.1369371 -0.4164977 0.8987646
vn -0.1306958 0.4034109 0.9056369
vn -0.1393636 0.4099841 0.9013067
vn -0.1480314 0.4165572 0.8969765
vn -0.1109538 0.9938256 -1.043115E-07
vn 0.1297135 0.4033928 -0.9057862
vn 0.1384034 0.4099735 -0.9014592
vn 0.1470934 0.4165542 -0.8971322
vn 0.1122939 0.9936751 -1.04536E-07
vn 0.149962 -0.4036679 -0.9025318
vn 0.1412952 -0.4100642 -0.9009798
vn 0.1326285 -0.4164605 -0.8994278
vn 0.1213267 -0.9926127 -1.566363E-07
vn 0.1334154 -0.40346 0.9052184
vn 0.1421406 -0.4100119 0.9008597
vn 0.1508658 -0.4165639 0.896501
vn 0.1463053 0.4036347 0.9031466
vn 0.1375618 0.4100279 0.9015732
vn 0.1288184 0.416421 0.8999997

usemtl Base_Target
f 1/1/1 2/2/1 3/3/1
f 2/4/2 4/5/2 5/6/2
f 2/7/3 5/8/3 3/9/3
f 3/9/4 5/8/4 6/10/4
f 1/1/5 3/3/5 7/11/5
f 3/3/6 6/12/6 8/13/6
f 3/3/7 8/13/7 7/11/7
f 7/11/8 8/13/8 9/14/8
f 1/1/9 7/11/9 10/15/9
f 7/11/10 9/14/10 11/16/10
f 7/11/11 11/16/11 10/15/11
f 10/15/12 11/16/12 12/17/12
f 1/1/13 10/15/13 13/18/13
f 10/19/14 12/10/14 14/20/14
f 10/19/15 14/20/15 13/21/15
f 13/22/16 14/23/16 15/24/16
f 1/25/17 13/22/17 2/4/17
f 16/22/18 17/24/18 18/26/18
f 16/22/19 18/26/19 19/4/19
f 19/4/20 18/26/20 20/5/20
f 9/14/21 8/13/21 21/27/21
f 8/19/22 6/10/22 22/20/22
f 8/19/23 22/20/23 21/21/23
f 21/22/24 22/23/24 23/24/24
f 6/10/25 5/8/25 24/26/25
f 5/8/26 4/28/26 25/29/26
f 5/8/27 25/29/27 24/26/27
f 24/26/28 25/29/28 26/30/28
f 20/5/29 18/26/29 27/3/29
f 18/26/30 17/24/30 28/13/30
f 18/26/31 28/13/31 27/3/31
f 29/3/32 30/13/32 31/31/32
f 15/32/33 14/20/33 32/33/33
f 14/20/34 12/10/34 33/26/34
f 14/20/35 33/26/35 32/33/35
f 32/33/36 33/26/36 34/30/36
f 12/10/37 11/9/37 35/8/37
f 11/16/38 9/14/38 36/34/38
f 11/9/39 36/7/39 35/8/39
f 35/6/40 36/4/40 37/5/40
f 38/1/41 39/2/41 40/3/41
f 39/13/42 23/24/42 41/35/42
f 39/36/43 41/33/43 40/37/43
f 40/37/44 41/33/44 26/30/44
f 38/1/45 40/3/45 42/11/45
f 40/3/46 26/12/46 43/13/46
f 40/3/47 43/13/47 42/11/47
f 42/11/48 43/13/48 31/14/48
f 38/1/49 42/11/49 44/15/49
f 42/11/50 31/14/50 45/16/50
f 42/11/51 45/16/51 44/15/51
f 44/15/52 45/16/52 34/17/52
f 38/1/53 44/15/53 46/18/53
f 44/38/54 34/30/54 47/29/54
f 44/38/55 47/29/55 46/39/55
f 46/3/56 47/40/56 37/5/56
f 38/31/57 46/3/57 39/13/57
f 48/3/58 49/5/58 50/26/58
f 48/3/59 50/26/59 51/13/59
f 51/13/60 50/26/60 52/24/60
f 26/30/61 41/33/61 24/26/61
f 41/33/62 23/32/62 22/20/62
f 41/33/63 22/20/63 24/26/63
f 24/26/64 22/20/64 6/10/64
f 31/14/65 43/13/65 29/27/65
f 43/38/66 26/30/66 25/29/66
f 43/38/67 25/29/67 29/39/67
f 29/3/68 25/40/68 4/5/68
f 34/30/69 45/37/69 32/33/69
f 45/16/70 31/14/70 30/34/70
f 45/37/71 30/36/71 32/33/71
f 32/35/72 30/13/72 15/24/72
f 37/28/73 47/29/73 35/8/73
f 47/29/74 34/30/74 33/26/74
f 47/29/75 33/26/75 35/8/75
f 35/8/76 33/26/76 12/10/76
f 52/24/77 50/26/77 53/22/77
f 50/26/78 49/5/78 54/4/78
f 50/26/79 54/4/79 53/22/79
f 21/22/80 36/4/80 9/25/80
f 13/41/81 15/42/82 17/44/83
f 17/44/83 16/43/82 13/41/81
f 15/45/84 30/46/85 28/48/86
f 28/48/86 17/47/85 15/45/84
f 30/49/87 29/50/87 27/52/87
f 27/52/87 28/51/87 30/49/87
f 29/53/88 4/54/89 20/56/90
f 20/56/90 27/55/89 29/53/88
f 4/57/91 2/58/92 19/60/93
f 19/60/93 20/59/92 4/57/91
f 2/61/94 13/62/94 16/64/94
f 16/64/94 19/63/94 2/61/94
f 37/65/95 36/66/96 54/67/97
f 54/67/97 49/59/96 37/65/95
f 36/68/98 21/69/98 53/71/98
f 53/71/98 54/70/98 36/68/98
f 46/72/99 37/73/100 49/75/101
f 49/75/101 48/74/100 46/72/99
f 39/76/102 46/77/102 48/79/102
f 48/79/102 51/78/102 39/76/102
f 23/80/103 39/81/104 51/83/105
f 51/83/105 52/82/104 23/80/103
f 21/41/106 23/84/107 52/44/108
f 52/44/108 53/43/107 21/41/106

