# ProBuilder 5.0.3
# https://unity3d.com/unity/features/worldbuilding/probuilder
# 11/20/2021 2:28:56 AM

mtllib ./RightObstacle_Variant.mtl
o RightObstacle Variant

g RightObstacle Variant
v -0.4933264 1.158014 0.4999999
v 0.07803166 0.6203034 0.4999999
v -0.4933264 1.158014 -0.5000001
v 0.07803166 0.6203034 -0.5000001
v -0.107059 0.4522512 0.4999999
v -0.6498491 0.9630766 0.4999999
v -0.107059 0.4522512 -0.5000001
v -0.6498491 0.9630766 -0.5000001
v 0.5582389 -0.0001676083 0.4999999
v 0.5582389 -0.0001676083 -0.5000001
v 0.3491378 -0.1371961 0.4999999
v 0.3491378 -0.1371961 -0.5000001
v 0.9354707 -0.6881206 0.4999999
v 0.9354707 -0.6881206 -0.5000001
v 0.707508 -0.7907514 0.4999999
v 0.707508 -0.7907514 -0.5000001
v 1.104467 -1.156703 0.4999999
v 1.104467 -1.156703 -0.5000001
v 0.8544704 -1.158014 -0.5000001
v 0.8544704 -1.158014 0.4999999

vt -0.4999999 -1.135562
vt -0.4999999 -0.3509713
vt 0.5000001 -1.135562
vt 0.5000001 -0.3509713
vt 0.4999999 -0.3705861
vt 0.4999999 -1.115947
vt -0.5000001 -0.3705861
vt -0.5000001 -1.115947
vt -0.4999999 -0.4261204
vt -0.4999999 0.3584707
vt 0.5000001 -0.4261204
vt 0.5000001 0.3584707
vt 0.4999999 0.3388559
vt 0.4999999 -0.4065054
vt -0.5000001 0.3388559
vt -0.5000001 -0.4065054
vt -0.4999999 0.2841546
vt -0.4999999 1.068746
vt 0.5000001 0.2841546
vt 0.5000001 1.068746
vt 0.4999999 1.049131
vt 0.4999999 0.3037693
vt -0.5000001 1.049131
vt -0.5000001 0.3037693
vt -0.7590631 -0.9855946
vt -0.5759042 -0.222682
vt -0.512141 -1.024703
vt -0.3381398 -0.2999362
vt 0.5759042 -0.222682
vt 0.7590631 -0.9855946
vt 0.3381398 -0.2999362
vt 0.512141 -1.024703
vt -0.2756541 0.5021856
vt -0.05290253 0.3886878
vt 0.2756541 0.5021856
vt 0.05290253 0.3886878
vt 0.1342937 1.171159
vt 0.336548 1.024213
vt -0.1342937 1.171159
vt -0.336548 1.024213
vt 0.4999999 1.228803
vt -0.5000001 1.228803
vt -0.5000001 0.978803
vt 0.4999999 0.978803
vt 0.5000001 0.7375032
vt -0.4999999 0.7375032
vt -0.4999999 0.4875033
vt 0.5000001 0.4875033
vt 1.075041 0.2270195
vt 1.133402 0.4701121
vt 1.455428 0.1184582
vt 1.607401 0.316963
vt -0.9339687 0.5000001
vt -0.9339687 -0.4999999
vt -1.432095 0.5000001
vt -1.432095 -0.4999999
vt -1.133402 0.4701121
vt -1.075041 0.2270195
vt -1.607401 0.316963
vt -1.455428 0.1184582
vt 0.971461 -0.4999999
vt 0.971461 0.5000001
vt 1.367036 -0.4999999
vt 1.367036 0.5000001

vn 0.6853391 0.7282241 0
vn -0.6853392 -0.728224 0
vn 0.7908208 0.6120477 0
vn -0.7908208 -0.6120479 0
vn 0.87683 0.4808006 0
vn -0.87683 -0.4808005 0
vn 0 0 -1
vn 0 0 1
vn 0.005243294 -0.9999863 0
vn -0.7797505 0.6260904 0
vn 0.940691 0.3392645 0
vn -0.9284268 -0.3715155 0

usemtl Obstacle
f 1/1/1 2/2/1 4/4/1 3/3/1
f 5/5/2 6/6/2 8/8/2 7/7/2
f 2/9/3 9/10/3 10/12/3 4/11/3
f 11/13/4 5/14/4 7/16/4 12/15/4
f 9/17/5 13/18/5 14/20/5 10/19/5
f 15/21/6 11/22/6 12/24/6 16/23/6
f 3/25/7 4/26/7 7/28/7 8/27/7
f 2/29/8 1/30/8 6/32/8 5/31/8
f 4/26/7 10/33/7 12/34/7 7/28/7
f 9/35/8 2/29/8 5/31/8 11/36/8
f 10/33/7 14/37/7 16/38/7 12/34/7
f 13/39/8 9/35/8 11/36/8 15/40/8
f 19/43/9 18/42/9 17/41/9 20/44/9
f 8/48/10 6/47/10 1/46/10 3/45/10
f 16/49/7 14/50/7 18/52/7 19/51/7
f 14/53/11 13/54/11 17/56/11 18/55/11
f 13/57/8 15/58/8 20/60/8 17/59/8
f 15/61/12 16/62/12 19/64/12 20/63/12

