# Blender 3.1.0
# www.blender.org
mtllib Rotation Indicator Split.mtl
o Cylinder
v 5.319300 0.368650 12.841924
v 5.319300 3.668650 12.841927
v 9.828784 3.668651 9.828786
v 9.828784 0.368651 9.828783
v 12.841925 3.668654 5.319301
v 12.841925 0.368654 5.319299
v 13.900000 3.668656 0.000001
v 13.900000 0.368657 -0.000001
v 12.841926 3.668659 -5.319299
v 12.841926 0.368659 -5.319300
v 9.828784 3.668662 -9.828782
v 9.828784 0.368662 -9.828785
v 5.319300 3.668663 -12.841923
v 5.319300 0.368663 -12.841926
v -0.000001 3.668663 -13.899998
v -0.000001 0.368663 -13.900001
v -5.319300 3.668663 -12.841923
v -5.319300 0.368663 -12.841926
v -9.828783 3.668662 -9.828783
v -9.828783 0.368662 -9.828786
v -12.841925 3.668659 -5.319301
v -12.841925 0.368659 -5.319302
v -13.900000 3.668656 0.000002
v -13.900000 0.368657 0.000000
v -12.841924 3.668654 5.319304
v -12.841924 0.368654 5.319302
v -9.828786 3.668651 9.828785
v -9.828786 0.368651 9.828782
v -5.319300 3.668650 12.841928
v -5.319300 0.368650 12.841925
vn -0.5556 -0.0000 -0.8315
vn -0.8315 -0.0000 -0.5556
vn -0.9808 -0.0000 -0.1951
vn -0.9808 -0.0000 0.1951
vn -0.8315 -0.0000 0.5556
vn -0.5556 -0.0000 0.8315
vn -0.1951 -0.0000 0.9808
vn 0.1951 -0.0000 0.9808
vn 0.5556 -0.0000 0.8315
vn 0.8315 -0.0000 0.5556
vn 0.9808 -0.0000 0.1951
vn 0.9808 -0.0000 -0.1951
vn 0.8315 -0.0000 -0.5556
vn 0.5556 -0.0000 -0.8315
vt -2.996917 0.995232
vt -2.996917 0.004807
vt -1.997221 0.004807
vt -1.997221 0.995232
vt -0.997525 0.004807
vt -0.997525 0.995232
vt 0.002171 0.004807
vt 0.002171 0.995232
vt 1.001866 0.004807
vt 1.001866 0.995232
vt 2.001563 0.004807
vt 2.001563 0.995232
vt 3.001259 0.004807
vt 3.001259 0.995232
vt 4.000955 0.004807
vt 3.999065 0.004807
vt 4.000955 0.995232
vt 3.999065 0.995232
vt 2.999369 0.004807
vt 2.999369 0.995232
vt 1.999673 0.004807
vt 1.999673 0.995232
vt 0.999977 0.004807
vt 0.999977 0.995232
vt 0.000281 0.004807
vt 0.000281 0.995232
vt -0.999415 0.004807
vt -0.999415 0.995232
vt -1.999111 0.004807
vt -1.999111 0.995232
vt -2.998807 0.004807
vt -2.998807 0.995232
s 1
usemtl Default_OBJ
f 1/1/1 2/2/1 3/3/1 4/4/1
f 4/4/2 3/3/2 5/5/2 6/6/2
f 6/6/3 5/5/3 7/7/3 8/8/3
f 8/8/4 7/7/4 9/9/4 10/10/4
f 10/10/5 9/9/5 11/11/5 12/12/5
f 12/12/6 11/11/6 13/13/6 14/14/6
f 14/14/7 13/13/7 15/15/7 16/17/7
f 16/18/8 15/16/8 17/19/8 18/20/8
f 18/20/9 17/19/9 19/21/9 20/22/9
f 20/22/10 19/21/10 21/23/10 22/24/10
f 22/24/11 21/23/11 23/25/11 24/26/11
f 24/26/12 23/25/12 25/27/12 26/28/12
f 26/28/13 25/27/13 27/29/13 28/30/13
f 28/30/14 27/29/14 29/31/14 30/32/14
